<!-- Generated by IcoMoon.io -->
<svg version="1.1" xmlns="http://www.w3.org/2000/svg" width="832" height="1024" viewBox="0 0 832 1024">
<title></title>
<g id="icomoon-ignore">
</g>
<path fill="#9696a7" d="M737.472 594.56l-314.304 428.608-314.368-428.608h1.408c-36.717-56.012-58.564-124.64-58.564-198.37 0-0.573 0.001-1.145 0.004-1.718v0.088c-0.001-0.228-0.001-0.498-0.001-0.769 0-204.725 165.963-370.688 370.688-370.688 0.293 0 0.585 0 0.878 0.001h-0.045c0.228-0.001 0.499-0.001 0.769-0.001 204.725 0 370.688 165.963 370.688 370.688 0 0.27 0 0.541-0.001 0.811v-0.042c0 74.304-21.44 142.848-58.624 200h1.472zM751.744 400.256c0-184.32-147.2-334.272-328.576-334.272-181.44 0-328.64 150.016-328.64 334.272 0 65.728 18.56 128.64 51.456 180.032h-1.408l278.592 385.728 278.592-385.728h-1.472c32.286-50.632 51.459-112.352 51.459-178.549 0-0.521-0.001-1.042-0.004-1.563v0.080zM423.168 537.408c-78.818-0.218-142.658-64.035-142.912-142.824v-0.024c0.254-78.813 64.094-142.63 142.891-142.848h0.021c78.791 0.254 142.594 64.058 142.848 142.824v0.024c-0.254 78.791-64.058 142.594-142.824 142.848h-0.024zM423.168 294.592c-55.744 0-100.032 44.288-100.032 99.968s44.288 100.032 100.032 100.032c55.68 0 99.968-44.288 99.968-100.032 0-55.68-44.288-99.968-99.968-99.968z"></path>
</svg>
